/* XPM */
static char *_59d4b5b5ab54fdfbefcf268d33f10fceSR18HuR7bhKsU0k[] = {
/* columns rows colors chars-per-pixel */
"60 60 250 2 ",
"   c #1A150B",
".  c #1C1911",
"X  c #2D1D0C",
"o  c #281808",
"O  c #241C12",
"+  c #2D1D10",
"@  c #381D16",
"#  c #38190B",
"$  c #1D251A",
"%  c #173000",
"&  c #3A2508",
"*  c #373000",
"=  c #2B2214",
"-  c #282619",
";  c #362617",
":  c #272E07",
">  c #1C2B25",
",  c #1A3238",
"<  c #272A26",
"1  c #322C27",
"2  c #2A3228",
"3  c #33342B",
"4  c #3B3424",
"5  c #293838",
"6  c #3A3A34",
"7  c #363936",
"8  c #252D30",
"9  c #4A1606",
"0  c #591B04",
"q  c #4D1B12",
"w  c #541F15",
"e  c #430E00",
"r  c #641D00",
"t  c #671C17",
"y  c #57240A",
"u  c #472917",
"i  c #5C2D1A",
"p  c #5A2714",
"a  c #4A3611",
"s  c #533417",
"d  c #462804",
"f  c #682907",
"g  c #68320D",
"h  c #75320C",
"j  c #652B15",
"k  c #68331C",
"l  c #7A3819",
"z  c #762C0F",
"x  c #402A25",
"c  c #4A3926",
"v  c #563A24",
"b  c #403533",
"n  c #692D24",
"m  c #6C3928",
"M  c #753C26",
"N  c #76372B",
"B  c #2E423D",
"V  c #35443E",
"C  c #344E0F",
"Z  c #495212",
"A  c #576C17",
"S  c #564328",
"D  c #564635",
"F  c #494A33",
"G  c #64472D",
"H  c #7B4225",
"J  c #74422D",
"K  c #7C442D",
"L  c #7C4A2C",
"P  c #744223",
"I  c #68522B",
"U  c #664934",
"Y  c #754433",
"T  c #7C4532",
"R  c #7C4B34",
"E  c #7C4C3A",
"W  c #754938",
"Q  c #665337",
"!  c #795337",
"~  c #735225",
"^  c #596E2A",
"/  c #6A6D31",
"(  c #2C3E45",
")  c #2B4444",
"_  c #2A484A",
"`  c #314B44",
"'  c #354C4C",
"]  c #3C4E4B",
"[  c #384645",
"{  c #2D544E",
"}  c #33524E",
"|  c #3B524D",
" . c #2B4E53",
".. c #2B4F5A",
"X. c #314E53",
"o. c #354B53",
"O. c #265353",
"+. c #2D5556",
"@. c #275954",
"#. c #2B5955",
"$. c #27565A",
"%. c #2E5659",
"&. c #27595A",
"*. c #2C595B",
"=. c #325455",
"-. c #3A5554",
";. c #315856",
":. c #32545A",
">. c #395559",
",. c #325A5B",
"<. c #3A5A5C",
"1. c #2E5A61",
"2. c #2B5561",
"3. c #325A61",
"4. c #345661",
"5. c #1E4445",
"6. c #424B45",
"7. c #445856",
"8. c #42564D",
"9. c #695541",
"0. c #755944",
"q. c #74674E",
"w. c #863A28",
"e. c #803919",
"r. c #86451C",
"t. c #834926",
"y. c #82442D",
"u. c #824A2D",
"i. c #8B4927",
"p. c #934E2A",
"a. c #904A26",
"s. c #97572B",
"d. c #814533",
"f. c #834C33",
"g. c #894D33",
"h. c #834B3A",
"j. c #894836",
"k. c #914E35",
"l. c #8C5234",
"z. c #82523A",
"x. c #8B543A",
"c. c #885536",
"v. c #925A35",
"b. c #9D5A32",
"n. c #9C5C3B",
"m. c #955837",
"M. c #89532C",
"N. c #A35D38",
"B. c #B15E3C",
"V. c #9B6239",
"C. c #8E603F",
"Z. c #AB6C3E",
"A. c #A56538",
"S. c #A96C3F",
"D. c #864C41",
"F. c #885441",
"G. c #985A45",
"H. c #A45D47",
"J. c #8A6445",
"K. c #9B6547",
"L. c #846C56",
"P. c #937252",
"I. c #A46442",
"U. c #AB6A43",
"Y. c #AB6D4B",
"T. c #A66947",
"R. c #B36E49",
"E. c #A97448",
"W. c #B5774A",
"Q. c #AA7857",
"!. c #BC7C54",
"~. c #B57A56",
"^. c #B06E53",
"/. c #B87963",
"(. c #AD6C68",
"). c #C27E56",
"_. c #6D8135",
"`. c #7B8646",
"'. c #8A904F",
"]. c #BB8458",
"[. c #B18256",
"{. c #93A852",
"}. c #9D8365",
"|. c #8E8C6F",
" X c #A7846A",
".X c #B58A66",
"XX c #A59967",
"oX c #B9966D",
"OX c #A6957A",
"+X c #AC8E75",
"@X c #99A567",
"#X c #A8AD6C",
"$X c #A3A75B",
"%X c #C38453",
"&X c #C5845B",
"*X c #C48A5C",
"=X c #CA8C5C",
"-X c #C8885B",
";X c #CA915B",
":X c #D3965F",
">X c #CC8B64",
",X c #C68A66",
"<X c #CD9464",
"1X c #C7976C",
"2X c #D3946C",
"3X c #D59869",
"4X c #C28F71",
"5X c #C79975",
"6X c #DB9D73",
"7X c #D69D78",
"8X c #D38F6A",
"9X c #DBA274",
"0X c #DCA47C",
"qX c #D5A678",
"wX c #D0A275",
"eX c #E6A67A",
"rX c #E5AC7C",
"tX c #E7A779",
"yX c #E9B47C",
"uX c #E09D72",
"iX c #A9C368",
"pX c #BCAA85",
"aX c #C59D81",
"sX c #CAA684",
"dX c #DCAE84",
"fX c #D8A986",
"gX c #C8B48A",
"hX c #DCB289",
"jX c #D9B696",
"kX c #CDAF92",
"lX c #E9AC86",
"zX c #E6B689",
"xX c #F5B789",
"cX c #E7BB94",
"vX c #F5BB93",
"bX c #FABB93",
"nX c #D4BFA2",
"mX c #D2CA94",
"MX c #F8C398",
"NX c #EACA9D",
"BX c #DECBAB",
"VX c #E5CBA8",
"CX c #E8D5A7",
"ZX c #F6D5AA",
"AX c #E8D7B5",
"SX c #F9D8B2",
"DX c #F8CEA6",
"FX c #F3E5BB",
"GX c #F2E1AB",
"HX c #FAE9CB",
/* pixels */
"%.%.%.%.%.%.%.%.+.+.+.+.+.%.%.%.%.%.%.%.+.+.+.+.+.%.%.%.%.%.+.+.%.*.%.+.%.+.%.%.%.%.,.=.:.:.:.:.%.%.%.%.%.%.:.:.:.:.:.:.",
"%.%.%.%.%.%.%.%.%.+.+.+.+.%.%.%.%.%.%.%.%.+.+.+.+.+.%.%.%.%.%.+.+.%.%.%.+.+.%.%.%.%.,.,.=.=.=.+.%.%.%.%.%.%.%.:.:.:.,.:.",
"+.+.+.+.%.%.%.%.%.%.+.+.+.%.%.%.%.%.%.%.%.%.+.+.+.+.+.%.%.%.%.%.%.%.%.%.%.%.%.%.%.%.+.+.+.+.+.+.+.%.%.+.%.%.%.%.%.,.,.,.",
"+.+.+.+.+.%.%.%.%.%.+.+.+.%.%.%.%.%.%.%.%.%.%.%.+.+.+.%.%.%.%.%.%.,.,.%.%.%.%.%.%.%.%.+.+.+.+.+.+.+.+.+.+.+.+.%.%.%.%.%.",
"+.+.+.+.+.%.%.%.%.%.%.+.+.+.%.%.%.%.%.%.%.%.%.%.+.+.+.+.%.%.%.%.,.:.:.:.%.%.%.%.*.%.%.*.*.#.#.+.+.+.+.+.+.+.+.+.+.%.%.%.",
"+.+.+.+.%.%.%.%.%.%.%.+.+.+.%.%.%.%.%.%.%.%.+.+.+.+.+.+.+.%.%.%.,.=.:.%.%.%.%.%.*.%.%.*.%.+.+.+.+.+.+.+.+.+.+.+.#.#.%.%.",
"%.%.%.%.%.%.%.%.%.%.%.+.+.+.+.%.+.+.+.+.+.+.+.+.%.%.+.+.+.%.%.+.+.+.+.+.+.+.%.%.%.%.%.%.+.+.=.+.+.+.%.;.,.=.+.+.#.#.#.#.",
"%.%.%.%.%.%.%.%.%.%.%.+.+.+.+.+.+.+.+.+.+.+.+.+.%.%.+.+.+.+.%.+.+.+.+.+.+.+.+.+.%.%.%.+.=.=.=.=.%.+.%.,.,.,.+.+.+.#.#.@.",
"%.%.%.%.%.%.%.%.%.%.%.%.%.%.%.%.+.+.+.+.+.+.+.+.%.%.%.%.+.+.+.+.+.+.;.+.+.+.+.+.;.+.+.O.+.,. .%.%.3.%.%.:.%.%.%.%.+.#.#.",
"%.%.%.%.%.%.%.%.%.%.%.%.%.%.%.%.%.%.%.%.%.%.%.%.+.+.+.%.,.,.%.+.,.+.+.+.,.+.;.+.+.O.+.<.%.%.%.,.%.O.%.*.%.%.%.,.%.+.+.#.",
"%.%.%.%.%.%.%.%.%.%.%.%.%.%.%.%.%.%.%.%.%.%.%.%.%.,.,.%.+.+.+.%.%.%...3.+.%.,.,.,.+.O.:.%.%.%.O.+.,.%.O.%.3.%.%.%.+.+.+.",
"%.%.%.%.%.%.%.%.%.%.%.%.%.%.%.%.%.%.%.%.%.%.%.%.+.%.%.+.+.%.%.%.1.2.*.%.%.+.=.' =.-.<.>.>.>.<.>.} { _ ,.*.%.1.%.%.;.;.;.",
"%.%.%.%.%.%.%.%.%.%.%.%.%.%.%.%.%.%.%.%.%.%.%.%.%.+.+.+.%.,.%.+.%.$.%.<.>.7.] [ 2 2 6 3 7 2 < 7 [ 8.| } +.%.%.*.%.;.;.=.",
"%.%.%.%.%.%.%.%.%.%.%.%.%.%.%.%.+.+.+.+.+.+.+.+.%.,.,.+.+.%.,.,.<.=.} [ 7 2 - c c L.+X9.D 9.D x = 3 6.| ;.,.O.*.%.+.;.=.",
"%.%.%.%.%.%.%.%.%.%.%.%.%.%.%.%.+.+.+.+.+.+.+.+.O.+.,.+.+.%.,.>.[ 3 ; = D v P.wXdXdXzXzXcXDXNXsXv ; 3 6.-.+.*.$.*.+.+.;.",
"%.%.%.%.%.%.%.%.%.%.%.%.%.+.+.+.%.%.%.%.%.%.%.%.;.+.=.=.-.| B 2 c U W sXcXfX0XvXvX3XW.W.Z.3XvXMXfXjXU = 6.=.%.$.*.+.+.+.",
"@.#.+.+.:.:.,.%.,.,.=.=.=.+.+.#.+.,. .+.+.+.+.+.;.} 7.V F 4 ; s 5XvXdXzXqX,XV.U.2XeX%Xs.N.a.!.>X6XzX.XW ; [ ;.*.#.+.%.,.",
"#.#.+.;.;.:.%.%.+.+.,.,.;.+.#.#.+.+.,.3.%.+.<.=.7.6.2 o & ! oXfXlXrX3X*XvXvX>Xm.n.>XxXxXeX>X!.A.!.tXeXT.q 1 ) ,.+.+.%.,.",
"%.%.%.;.+.+.+.%.*.*.*.%.%.%.+.+.%.+.%.%.%.>.>.] 3 o v Q.oXqXzXwXE.W.!.I.n.>XtXeX!.k.n.2XlXvX2Xl S.<X<X*X.XU O [ >.%.%.%.",
":.:.,.%.+.+.+.%.%.%.$.$.*.*.%.+.,._ ,.=.7.[ 7 - L. XhXMXdXrXzXMXzX9X6XU.N.r.%XrXbX8Xl.V.0XrXeXR.I.h Z.<X*XL & 6 -.:.%.$.",
">.>.%.%.%.%.%.%.%.%.%.$.&.&.*.+.O.-.| 6.1 o u  XjXcXwX0X7X].!.W.).lXlXlXtXR.p.R.bXMX!.s.n.~.9X6XY.r i.-X;XA.y @ 6.>.%.*.",
">.>.%.*.&.&.%.%.,.>.:.%.+.+.+.=.8.F = o v +X5XcXqXqX9X0X].V.b.m.H.^.>XrXxXlX2XY.U.W.2X&Xl n.<X*X!.p.f Z.].A.t.u 6 [ ,.*.",
":.:.%.*.&.&.%.%.%.:.%.+.=.=.} V + u }.oX5XqXzXzX].Z.U.>XvXvX9XvX7Xn.W.].3XrXvX2Xi.l 3X6XN.h b.-X&X~.f r.W.U.Y.J @ 7 =.%.",
":.%.%.+.#.#.+.%.:.:.:.>.8.6.3 X J.[.zXzXwX1X].0X3X6X!.b.!.0XxXMX0X,X*Xs.*X9XtXrXR.z a.>X>Xa.0 I.>X^.k.f V.W.Y.W o 7 -.;.",
"%.3.+.+.#.{ #.+.%.:.=.] 3 ; G .XzX0X7X7XMX5Xi.b.eXbX<X].R.b.>XrXrXzXlXU.i.W.tX;X*Xb.0 I.*XZ.f l U.I.G.0 P Y.K.m @ 1 =.#.",
"%.%.,.+.#.{ #.<.+.=.] 3 c P.dXlXzX].b.I.dXlX>X!.R.=XxXxXtXZ.b.<XyXyX<X%XI.i.A.%X%X*Xj y.!.*XG.0 l m.G.k k x.T Y @ 7 =.;.",
"+.,.O.*.O.%.;._ | 6 O c aXzX2X2X0XMX,XT.Y.!.lX6XZ.%X=X6XxX2XN.a.&XxX3X=X!.l r U.].].t.k n.K.x.y k f.F.M y K j.W x 7 { @.",
"=.#.O.$.1.%.X.7.3 D pXjXcX].U.b.U.6X0X<XA.N.8XxXlXU.h U.6X9X<Xh h Z.:X=X>X^.f l W.].v.j K f.h.i m R R k k f.h.W x [ } @.",
"{ O.*.$.1. .7.6 D kXDXvXwX3XlX&XR.r.3XMXuXN.m.lX7XlX^.e.*XrX6Xs.f h W.%X!.~.K j m.U.Y.y j F.E J J J K H L z.h.Y @ 3 -.#.",
"+.+.&.&.%.>.6 ;  XfXdXwXS.V.!.bXtXZ.!.&XbXlXs.t.lXlX>Xp.b.*X=X-XW.h l I.~.~.l.9 l I.G.l j m R R E J u.u.L z.T W G ; ] ;.",
"%.$.1.+.>.[ O  XVXhXzXhXwXW.B.B.eXeXr.N.xXeX6Xr.b.<XrX=Xr.b.=X*X*Xg j K.T.I.K.0 k G.F.K m T K R T h.j.y.z.E P K. X; 7 -.",
"2.*.%.+.8.- D kXZXSXNXZXzX!.z w.8X6XA.b.n.&X6XA.f U.3X=Xb.r p.~.Q.P y K l.t.u.j j h.R M m K K f.z.K g.i.R J R 5X5Xo < ' ",
"%.%.%.>.6.  q.VXZXZXgXP.K.i.N i.Y.2XtXA.r p.tX%Xl h !.!.N.f 0 n.Y.K.M j K x.T J i J W R T T d.h.E E f.g.t.M.5XjXS - 8 _ ",
",.+.%.>.1 Q gXFXCXgXXXI K.G./.j.j vX6X-Xp.h ].;XY.0 s.&X/.k.0 l.K.m.K y J F.F.k p z.E E R K T T Y W K l.n.fXcXL.= $ 5 =.",
"O.+.%.-.= OXHXAXFXpX`.I I W k p 9 G.5X7X2Xg V.*X,Xf r.~.Y.l.9 K x.T K k T h.F.M M f.M K u.K R L H t.v.].5XaXL.  > 5  .,.",
":.%.,.` D AXBXAX#XZ / Z * & y 9 e p k j./.t.E.E.v.g f v.g.K 0 p f.T K J R K K R f.u.u.u.H L L c.M.Q.wXjX Xu O 5 ) X.%.%.",
":.%.+.` F nXgXFX`.`.iXA : / C.j M j.0 j m.H Q.J.c.P y m J R Y N T f.T T Y R K f.u.j.g.f.j.t.v.E.hXoX0.c O 2 [ o.:.:.%.%.",
"+.%.,.` F BXpXAX#X^ {.{.^ / ! ^.H.l j 0 H M G.f.f.L m J Y E Y T T K R R Y E x.f.x.u.K K x.~.cX5X! c = 1 5 _ >.:.%.%.%.+.",
"=.,.+.{ - OXBXVXmX'._.{._.Z s n n t w.j k h.d.d.K f.E R T h.T T x.K R E ! W E f.u.l.m.].sXJ.0.D . < V ) >...3.%.%.+.=.} ",
";.O.%.<.2 |.AXCXgX/ '.Z _.`.s T (.n n m m h.M y.j.j.f.f.J T h.d.K f.L L ! R J f.K.~.4X.XL.X O $ V ' >.,.%.*.1.%.+.+.=.=.",
"+.+.%.:.B q.gXNXCXmX'.A {.$X~ M m w q q v T K K j.y.f.J J E T R R L f.f.u.g.l..XQ.Q.9.+ O 3 5 ' =.+.+.+.%.%.%.%.+.+.+.+.",
",.O.3.%.-.$ I SXGXCXZ Z {.{.oXJ p w 9 e i W M y.d.d.K R z.E R E z.R f.g.x.Q.4X.Xs o - 7 B ' >.>.;.+.+.+.+.+.+.+.+.+.+.+.",
"O.%.:. .7.< Q SXCX'.^ % ^ #Xa i 0 0 T k i E Y T h.h.T R E R z.z.R u.x.Q.4Xm u u - 2 ' =.{ ;.O. .+.+.+.+.+.+.+.+.%.%.$.$.",
"O.#.%.4.o.8 Q VXXXZ ^ C ^ #XS m T./.G.p 9 n E D.h.D.h.f.f.L f.P v.4XaX+XW ; = 3 5 -.,.O.*.%.O.,.+.+.+.+.+.+.+.%.%.$.$.$.",
"*.O.%. ., < = +XmXXX@X`.^ #X/ s M G.N 9 w i m E T T K y.g.t.v.Q.~.C.U D - 5 o.>.>.+.+.+.+.+.O.$.+.+.+.+.%.%.%.%.%.%.%.%.",
"%.*.%.5., 8 = S FXXXZ '.{.`.* d 9 9 D.m e k D.h.f.K j.g.T.].4X.X! & o < ' X.%.$.%.+.,.,.O.%.,.O.+.%.%.%.%.%.%.%.%.%.%.+.",
"%.,.#.{ 5 > 1 X }.sX#X#X@X^ * s # p q 9 g.v.f.u.M.V.Q./.Q.G v 4 - < 5 | } ,.+.*.*.%.%.%.:.%.+.O.+.%.%.%.%.%.%.%.+.+.+.+.",
">.+.#.#.=.( 8 < ; I L./ @X`.a a U q i Q.zXE.c.K..XdXP.u c = - 2 5 X.=.=.;.{ O.%.$.%.%.%.%.+.,.;.+.%.%.%.%.%.%.%.+.+.;.+.",
",.,.+.+.,.>._ 8 < $ = = = OXQ Q oX~.].rX9X6X1XsX}.Q 4 - > ` ' =.>.;.;.+.+.+.+.+.%.%.%.%.%.%.%.%.%.%.%.%.%.%.%.%.%.+.+.+.",
"+.+.,.%.%.:.:.X.) > 5 < - F 4 9.}.1X5X1X]..XJ.G X . 5 _ _ ,.,.%.+.%.+.+.+.+.%.%.+.+.%.%.%.%.%.%.%.%.%.%.%.%.%.%.%.%.+.+.",
"+.+.%.+.%.%.:.>.=.) B > < - - - + S U U v ; o O 3 5 =.>.%.%.O.+.+.+.+.+.+.%.%.%.%.%.%.%.%.%.+.+.%.%.%.%.%.%.%.%.%.%.+.+.",
"+.+.%.%.%.%.%.+.+.>.-.` B > > > < <   . - 1 3 V ] =.:.%.%.%.:.,.%.%.+.+.+.+.+.+.%.%.%.%.%.+.+.+.%.%.%.%.%.%.%.%.%.%.+.+.",
"+.+.+.%.,.*.%.%.,.,. .;.=.} ) ) ( o.) ' ] ' -.=.O.%.%.*.%.+.+.O.%.%.%.%.%.+.+.+.%.%.%.%.%.+.+.+.%.%.%.%.%.%.%.%.%.%.+.+.",
"O.+.+.%.%.%.%.%.+.*.,.+.O.,.+.,.4...:.>.;.+.+.O.@.*.O.+.%.+.;.;.+.+.+.%.%.%.%.%.%.%.%.%.%.%.+.+.%.%.%.%.%.%.%.%.%.%.+.+.",
"+.%.%.+.+.+.%.%.%.+.%.%.*.+.O.%.%.%.,.+.O.;.#.O.*.@.O.+.+.;.=.=.+.+.+.%.%.%.%.%.+.+.%.%.%.%.%.%.%.%.%.%.%.%.%.%.%.%.+.+.",
"%.*.%.+.%.,.%.+.%.%.%.%.*.%.*.*.*.+.+.+.+.,.O.*.O.O.*.%.+.=.=.>.%.%.%.%.%.+.+.+.+.+.+.%.%.%.%.%.%.%.%.%.%.%.%.%.%.%.+.+.",
"%.%.%.%.%.%.+.+.+.%.%.%.%.%.%.%.%.%.%.+.+.+.+.%.%.%.%.%.%.:.:.,.+.%.%.%.+.+.+.+.%.%.%.%.%.%.%.%.%.%.%.%.%.%.%.%.%.%.%.%.",
"%.%.%.%.%.%.+.+.+.+.+.%.%.%.%.%.%.%.%.%.:.:.=.:.:.%.%.%.%.%.%.%.%.%.%.%.+.+.+.+.%.%.%.%.%.%.%.%.%.%.%.%.%.%.%.%.%.%.%.%.",
"%.%.%.%.%.%.=.+.=.=.=.=.=.+.%.%.%.%.%.%.:.:.:.:.:.:.%.%.%.*.*.%.+.%.%.%.+.+.+.+.+.+.+.+.+.+.+.+.+.+.+.+.+.+.+.+.+.+.+.+.",
"%.%.%.%.%.%.=.+.=.=.=.=.=.=.=.+.%.%.%.%.:.:.:.:.:.:.%.%.%.$.%.%.+.%.%.%.+.+.+.+.+.+.+.+.+.+.+.+.+.+.+.+.+.+.+.+.+.+.+.+."
};
