/* XPM */
static char *bfd8abfd8ddf48ff89aed11d5592ee98AlzHz4bacIKmPjcl[] = {
/* columns rows colors chars-per-pixel */
"50 50 256 2 ",
"   c #3B2F06",
".  c #2D2706",
"X  c #481806",
"o  c #581C07",
"O  c #5B1E12",
"+  c #480F07",
"@  c #492707",
"#  c #58270A",
"$  c #592616",
"%  c #493617",
"&  c #5A3417",
"*  c #513511",
"=  c #662807",
"-  c #71330E",
";  c #642C13",
":  c #662818",
">  c #643A1C",
",  c #673618",
"<  c #773A18",
"1  c #702E09",
"2  c #5C3A23",
"3  c #6A3826",
"4  c #743A27",
"5  c #723128",
"6  c #61190A",
"7  c #564716",
"8  c #4B5918",
"9  c #56581C",
"0  c #6E431B",
"q  c #5A4B29",
"w  c #5A5428",
"e  c #57542C",
"r  c #624D2C",
"t  c #69482A",
"y  c #7A442C",
"u  c #74492B",
"i  c #7B4A2C",
"p  c #764426",
"a  c #67522C",
"s  c #7A552C",
"d  c #664D33",
"f  c #6C4B34",
"g  c #6C4D3A",
"h  c #6A4533",
"j  c #7C4532",
"k  c #734C35",
"l  c #7C4B33",
"z  c #724D3B",
"x  c #7C4D3A",
"c  c #744536",
"v  c #645534",
"b  c #6C513A",
"n  c #665739",
"m  c #7C5134",
"M  c #75523D",
"N  c #7A543C",
"B  c #7D593D",
"V  c #765636",
"C  c #59672B",
"Z  c #5C7C33",
"A  c #65762E",
"S  c #656B37",
"D  c #776D3A",
"F  c #697739",
"G  c #77773C",
"H  c #666829",
"J  c #49631C",
"K  c #7E5B44",
"L  c #7B5846",
"P  c #754E45",
"I  c #796946",
"U  c #6E7843",
"Y  c #777845",
"T  c #756A4F",
"R  c #796B60",
"E  c #803E29",
"W  c #803C17",
"Q  c #834A2C",
"!  c #864926",
"~  c #934D27",
"^  c #86522D",
"/  c #94532B",
"(  c #965829",
")  c #824B34",
"_  c #844D3A",
"`  c #854936",
"'  c #835335",
"]  c #83543B",
"[  c #8B543B",
"{  c #835A3C",
"}  c #8B5838",
"|  c #9B5B33",
" . c #965937",
".. c #8D653D",
"X. c #96633C",
"o. c #A16335",
"O. c #A5683D",
"+. c #B26B3F",
"@. c #81431E",
"#. c #835C45",
"$. c #825D4A",
"%. c #8B5B47",
"&. c #945D42",
"*. c #965843",
"=. c #874D47",
"-. c #846245",
";. c #8C6445",
":. c #84644C",
">. c #8C654B",
",. c #8C6A4D",
"<. c #896947",
"1. c #9A6444",
"2. c #93654B",
"3. c #926C4C",
"4. c #9B6D4B",
"5. c #966646",
"6. c #9C714D",
"7. c #92764C",
"8. c #8B6552",
"9. c #8B6B54",
"0. c #866752",
"q. c #946C54",
"w. c #9B6D52",
"e. c #946B57",
"r. c #957354",
"t. c #9D7354",
"y. c #9C745A",
"u. c #987858",
"i. c #88734A",
"p. c #AB6B44",
"a. c #A86A46",
"s. c #A6734B",
"d. c #B6794B",
"f. c #A36D54",
"g. c #A17454",
"h. c #A2755A",
"j. c #A47B5B",
"k. c #AB7C5B",
"l. c #A97854",
"z. c #BB7C54",
"x. c #B67A58",
"c. c #B36F4A",
"v. c #977765",
"b. c #A47D62",
"n. c #AD7D61",
"m. c #A17761",
"M. c #B47966",
"N. c #A15D46",
"B. c #C07E5B",
"V. c #678339",
"C. c #6C983D",
"Z. c #719A3E",
"A. c #748538",
"S. c #7B8646",
"D. c #6C9545",
"F. c #6D9B44",
"G. c #6C964A",
"H. c #6C9C4A",
"J. c #679745",
"K. c #729C44",
"L. c #739549",
"P. c #739C4B",
"I. c #7B9C4D",
"U. c #78944C",
"Y. c #7C8852",
"T. c #7B9D53",
"R. c #799552",
"E. c #6D8C47",
"W. c #6DA345",
"Q. c #6DA34A",
"!. c #6EA94A",
"~. c #6FAB47",
"^. c #73A245",
"/. c #74A44A",
"(. c #7AA44D",
"). c #74AA4B",
"_. c #7AAA4C",
"`. c #77A746",
"'. c #77B14B",
"]. c #7BA353",
"[. c #75AB52",
"{. c #7CAA53",
"}. c #76A754",
"|. c #72A751",
" X c #88854A",
".X c #869755",
"XX c #908E53",
"oX c #AC825D",
"OX c #B5855C",
"+X c #BA8358",
"@X c #BD814B",
"#X c #86A554",
"$X c #8BA856",
"%X c #9B8F77",
"&X c #AC8364",
"*X c #AC836B",
"=X c #B38563",
"-X c #BB8C65",
";X c #B68A6C",
":X c #BB8C6B",
">X c #B68766",
",X c #BA926B",
"<X c #BA9473",
"1X c #AC8E75",
"2X c #96A664",
"3X c #ADAC6B",
"4X c #C4845C",
"5X c #C7895B",
"6X c #CD9157",
"7X c #C18E6C",
"8X c #C68A63",
"9X c #C3936D",
"0X c #CC946B",
"qX c #CA986A",
"wX c #D3946B",
"eX c #D49B6C",
"rX c #D59668",
"tX c #C59472",
"yX c #CB9B74",
"uX c #CB9C7A",
"iX c #C59876",
"pX c #D29D74",
"aX c #D39D7B",
"sX c #DA9B76",
"dX c #CB8C6C",
"fX c #E29F6F",
"gX c #CBA17B",
"hX c #C8A175",
"jX c #D3A37C",
"kX c #DBA47C",
"lX c #D7A375",
"zX c #DCA06C",
"xX c #E5A77B",
"cX c #ECAE78",
"vX c #929691",
"bX c #AC9886",
"nX c #C99E84",
"mX c #CAA784",
"MX c #D9A786",
"NX c #DAB58A",
"BX c #D1B492",
"VX c #EBAC84",
"CX c #E6AA86",
"ZX c #E8B489",
"AX c #F4B789",
"SX c #EBBA95",
"DX c #F7B996",
"FX c #F1AE84",
"GX c #E6BBA2",
"HX c #D5C89A",
"JX c #F4C89C",
"KX c #DCC6A3",
"LX c #E8D3A8",
"PX c #F2D4AD",
"IX c #F5E3B5",
"UX c #FAE2C6",
/* pixels */
"^.^.K.F.G.H.|.{.{./.D.F.^.`._._.).).).Q.H.P.K.C.Z.^.).[.H.H.H.Q.[.[.W.`.{.K.C.F.K.D.G.P.]._.^.F.D.D.",
"C.Z.K.F.D.G.}.{.{./.F.F.^.`._.).'.'.!.Q./.P.K.Z.K.^.)./.D.H.H.|.}.[.^./._.^.F.K.D.D.G.G._._.^.F.D.D.",
"F.^.^.K.L.P.(.{._.^.F.F.^._._.^.'.'.).!.Q.Q.F.F.K.^.)./.Q.W._.P.T.T.(._.^.F.Z.C.Z.F.H.P.)._.^.P.F.H.",
"^.^.^.K.D.F.^./._.).W.^._.#X_.).W.~.W.W.!.Q.H.H.P.]._./.)./.(.A C C V.F.F.^._.`.^./.}.|./.^.^.^.^.(.",
").).(.P.F.H./._.).^.W.W./._.).!.).{.).W.!.W.H.G.P.]._.).{.$X#XA w w V.G.J.W.`.`._.'.[.[.^.K.^._._._.",
"!.).].P.H.H.P.I.P./.).).}.{.[.[.].T.(./.Q.W.F.G.I.T.(.(.(.#X.XD r w E.P.J.Q._._.).).[.).W.W./._._._.",
"W.H.P.P.P.L.V.A A E.F.F.P.P.F.D.F S V.P.^.K.K.P.I.P.I.U.F F D a a q U P.J.D.K.K.Q.!.).)./././.).).).",
"F.D.L.T.{.T.F 8 e F P.F.F.P.D.V.e e S R.(.K.K.K.K.D.R.Y.w w q r f r U R.P.P.L.K.H.Q./.].#X{.).).).).",
"F.C.K.P.{.T.S e e Y P.Q.P.P.I.F v v I .X.X#XZ.^.^.T.R.Y.I d d d a q Y R.U.U..XR.T.T.].I.#X#X#X).).).",
"W.W.K.^.^.T.S v v Y P.F.K.K.I.U r d n I S V.(._.F.Z F I b h g K :.,.I U U F F F S F S F G A V.^.).).",
"~.).).)./.T.S q e Y T./.(.(.#XS.v f d r w C ].].T.C e v g P g e.e.K q q % % % % v n e v q w S T.{.).",
"~.).)./.P.R.S r r Y .XT.I..X.XS.a k k f e S .X2XR.C a d h 2 @ $ j ] *XnXr.u.b.z X % b t b q n .X#X].",
"/.^.K.V.F Y 7.r.7.i.Y F F G G D <.-.#.-.I I U Y Y D t t @ ] j.k.SXDXMXuXjXZXPXJXl.] @ ,.r.r.7.i.Y Y ",
"F.P.L.C w a oXgXgX3.r w w w a V r.j.y.u.u.9.v a 7 & 0 9XyXZXNX-Xx.xXxXa.( ( d.xXDXZXi > ;XmX>Xa r q ",
"G.P.Y.S q k oXgXyX5.h g d r d -.w.t.t.y.b.-.3 @ p l.kXVXxX0XZXCXp.~ 4XFXcX6Xd.o.B.CX9X@ & 1X;Xm d d ",
"P.R.Y.Y L #.k.-X-Xg.2.e.K g g $.&X;X*X>.u & 2.tXMXDX0Xz.d.X.O.8XVXdX( O.eXAXcX~ p.8X8X-Xt > ;Xl f b ",
"T..XXX Xu.r.j.4.6.,XyXyXg.k g v.BX*Xl , oXkXSXZXxXxXVXCXcX@XO.! 4XDXVX| a.sXfX6X| 1 d.qX5.X >.N d b ",
"I.$XXX Xu.u.w.j.y.>XlXpXs.k z M u p l MXSXCXlXpXX.|  .z.rXAXDX4X| 4XxX8X| ! rXeXp.= o.8X4.& & B t t ",
".X XXXXXr.y.8.y.8.&X:XtXoXm & { ..-XSXZX5Xd.dXCXxX8XwXc.a.8XlXAXxX( @.sX8X< / B.5X( = x.l.2.# k >.;.",
" X XXXu.r.y.$.c z >.&X5.p 0 l.SXSXyX-XlXeX4Xa.x.sXDXJXwXz.O.8XzXFXz.- | 0Xa.= a.5Xp.- Q l.h.& 3 uXuX",
"i.7.u.r.n.y.L h x >.k > ..kXkX9XkXSXO.| lXAXrXd.o.4XxXFXAXx./ B.rXrXa.# a.dX4 ; O.O.4 ; f.2.& $ uXpX",
"k.j.j.w.w.2.8.L t # V hXZXZX0XX.l.kXsX4Xp.eXcXcXd.| wXAXeX8X| < p.z.8X< / >Xf.; - | Q : j l 3 3 9X7X",
"tXuXiX%.c %.8.L u 4.NX-Xs.z.DXsXp.| wXVX4Xo.O.cXeXp.< z.fX6X5X- - c.8X! ; *.[ # 4 y ) # y %.3 4 j.g.",
"aXaXtX%.4 N h K JXPXkXqX4Xo.O.xXVXp.| CXxX5XW c.AXrX< = O.6Xd.c.=  .c. .# j [ 4 4 j p p ) _ : , j.y.",
"0XaX0X&.] t & iXNXjXp.d.fXFXp.+XxXDXp./ xXVXa. .5XwX4X! - O.4Xc.= = &.1.: 3 ) y l y y ) l l p ; 2.y.",
"lXyX0Xl.;.* hXLXNXSXeX+.| rXlX0 z.CXsX/ | sXsX| / 4X8X| o  .O.O.< ; [ [ 4 3 j ) l l ] i ' y :X' & N ",
"yXtX0X>X* a LXPXLXNXsX/ 1 p.xX@X~ / eXd.1 c.rXO.o p d.a.: 5 Q ) y ; j j 4 j j _ x x l l p 5.MXu 2 g ",
"<XiXtXw.@ 1XIXLXBXV } ` N.! wXxX| = 4X8X! - d.d.p # 1.1.[ O j _ ) $ 4 ` j ) j l l m l i j.SX4.# B N ",
"$.#.8.z :.UXIXKX%Xn #.%.5 O x.sXkX! ~ dXx.= a.x.*.$ ` [ ) ; ) _ j 3 _ ) j y y i y p ;.=XMX4.u 9X-X-X",
"f f z f GXLXIX XS w   @ X + : E c.a./ z. .# p } j O 4 j y 4 j j l l j y y ) y ) } ;XmX<X> } gXyXyXlX",
"k M M M BXBXHXH 2XA.  I V y E 6 4 Q &.1.[ , ; y ) 3 y l x j j l l x l [ ) Q &.n.MX4.p > j.gXuXiXyXuX",
"3.,.9.K mXBXLXXXA.3XF 9 V [ : 5 : 4 [ ) y ) p y l l l l j x y ' [ ' ) y  .l.nX=X> ; > { &X&Xt.2.;.;.",
"g.g.b.B u.LXLX2XF F F 7 # ` 5 4 : ` ) 4 ) ) ) y y i l i j x x i p ^ 5.k.uX;.> x ] l k { t.y.>.k h h ",
"g.4.g.3.:.KXPX3X2X8 $X X, *.: O $ c j j ) ) ) j l l u ] l i i Q X.s.OX5.p ' t.j.2.l u { y.y.9.P g g ",
">X:X;Xb.2 :.IXIX X8 $X3X3.o o + X 4 c j j j j ) _ l l ) i ! 1.s.-X .' l.OX9X-XOXOXl.oXt.-.K I I L L ",
"yXaXuX;X3 ,.IX3XH . A. X@ ; 5 =.$ 3 c x ] _ j _ ) [ y ' 1.x.a.! 1.>XaXaXkXlXqXqXyXhXjXk.k h M K 8.8.",
"eXeX0Xk.-.f KXI Y J A 2X0 ) M.=.+ $ j x j l y i p ^ Q x.8Xx.[ 7XsXeXkX0XpX9XyXhXqXyXgX&XN t V -.>.>.",
"rXeX9Xj.r.& 1XLXY .XI.S.* $ 5 =.$ X 4 ] j y y ' 4.x.OX} p 1.k.aXeX0XqXyXyXOX6.6.oXyXgX:Xg.t.h.n.k.k.",
"eXyXyX6.-.B p NXXX2X2X9   X + $ o y ' Q i 5.5.g.5.&.[ y k.k.g.-XqXlXyXqXiXt.u t q.uXuXiXtXkXaXyXtXyX",
"pXtXyX,.,.,.} ^ 7...XXH @ 3 $ $ >XyX} 1.7X9X' } 2.2.w.k.w.t.g.,XgXyXyXgXgXr.f f e.nXuXyXlXyXyXyXyXyX",
"8X>X&X,.:.9.w.t.B a 7  X* >X>X9XMXkXtX:X2.] { j.n.;X=X&Xg.t.j.j.b.y.b.b.v.:.z c 2.;X:XOXOXOXOX-X-X-X",
"&.5.>.-.0.0.t.t.j.iX,Xs s ..l.OXOXs.s u m >.{ u ' >XyXiXoXy.t.B M z f k z k k x #.h.g.4.....5.t.g.g.",
"%.>.:.:.9.:.t.f.f.:XgXjXoX....} m m { r.&Xr.s 0 s 9XjXyXk.6.t.N t f f f z k u u { w.y.t.>.3.,.y.h.g.",
"y.y.r.-.K #.w.f.f.n.>X:Xk.j.j.t.y.j.y.>.,.-.{ { 5.9XyX9Xl.6.g.3.;.3.K k z N B N <.r.m.e.L $.:.y.y.g.",
"yXuX<X-.f M #.8.8.2.>.;.t.w.w.=XiXgX&Xk k $.e.t.h.9XyX0Xk.s.g.>XiX<Xq.f k -.r.r.u.y.v.9.z z L e.y.g.",
"yXgXiX#.h P K 0.:.8.>.>.3.h.g.=XyXgX&Xk h L e.m.n.tXjXtXl.4.y.<XmXmXr.f f :.y.u.r.r.q.8.z h N e.y.g.",
",X,X;X#.c P L 0.:.9.<.;.r.y.h.n.tXtXk.] m ;.t.t.h.:XtX7Xk.t.u.1XbXbX9.d M $.e.q.t.&Xk.6.' m -.u.y.g.",
";.3.>.x c P K 0.:.r.7.j.3.y.h.w.g.g.g.t.t.t.t.h.t.k.g.h.h.y.v.1XbXbXR g g z N k w.iXyX-X6.6.t.t.y.y.",
">.:.:.M z z $.0.:.r.y.y.y.t.g.g.g.g.y.t.g.g.y.y.g.t.g.t.y.y.v.%XvXvXR g g z z f 4.uXaX7Xg.y.y.y.t.t.",
":.:.:.M g z K :.>.q.h.t.g.y.g.g.t.t.y.t.g.g.h.y.y.t.t.6.h.y.v.vXvXvXR g g z b f 3.yXpX7Xg.y.t.y.t.t."
};
