/* XPM */
static char *d9bb339f352a42f9b0fb8dbdc8145307oqsk5xgnEDy8yaSt[] = {
/* columns rows colors chars-per-pixel */
"50 50 195 2 ",
"   c #020101",
".  c #0B0301",
"X  c #030902",
"o  c #0B0A02",
"O  c #03040B",
"+  c #0B0509",
"@  c #130302",
"#  c #1B0302",
"$  c #140A03",
"%  c #1C0B03",
"&  c #13040A",
"*  c #1D020A",
"=  c #110809",
"-  c #1B0B0A",
";  c #041101",
":  c #0E1300",
">  c #061802",
",  c #161300",
"<  c #1C1204",
"1  c #1B1904",
"2  c #150313",
"3  c #190510",
"4  c #101018",
"5  c #230303",
"6  c #2C0402",
"7  c #230B02",
"8  c #2C0B02",
"9  c #240709",
"0  c #21040A",
"q  c #290509",
"w  c #2F0708",
"e  c #2E0608",
"r  c #220D08",
"t  c #240F0A",
"y  c #250B0C",
"u  c #270E0D",
"i  c #240C0A",
"p  c #290B0B",
"a  c #2E0D08",
"s  c #2C0F09",
"d  c #290B0D",
"f  c #2B0A09",
"g  c #300300",
"h  c #310600",
"j  c #310500",
"k  c #300007",
"l  c #310504",
"z  c #350707",
"x  c #330402",
"c  c #3B0600",
"v  c #380005",
"b  c #3B0402",
"n  c #360903",
"m  c #340C02",
"M  c #330B02",
"N  c #380800",
"B  c #3E0800",
"V  c #3C0A00",
"C  c #3E0E00",
"Z  c #3F0D02",
"A  c #3B0B07",
"S  c #3F0A06",
"D  c #3D0B04",
"F  c #3B0B03",
"G  c #320508",
"H  c #33030A",
"J  c #39040A",
"K  c #370909",
"L  c #330C0B",
"P  c #380F09",
"I  c #3A0D0C",
"U  c #221504",
"Y  c #241402",
"T  c #291300",
"R  c #2B1005",
"E  c #2B1303",
"W  c #23100A",
"Q  c #2D150A",
"!  c #2C190A",
"~  c #351303",
"^  c #3D1400",
"/  c #381004",
"(  c #3C1304",
")  c #351902",
"_  c #3D1B02",
"`  c #301208",
"'  c #35130A",
"]  c #39100A",
"[  c #38130A",
"{  c #3B110B",
"}  c #240B11",
"|  c #3D0B13",
" . c #3E2403",
".. c #420700",
"X. c #440503",
"o. c #490407",
"O. c #420A00",
"+. c #440903",
"@. c #460B07",
"#. c #430B03",
"$. c #490802",
"%. c #4B0C00",
"&. c #4A0B04",
"*. c #4D0D03",
"=. c #410608",
"-. c #49030B",
";. c #420F0B",
":. c #440D08",
">. c #460C0B",
",. c #440D0A",
"<. c #4C0C0B",
"1. c #520402",
"2. c #510602",
"3. c #5A0405",
"4. c #510B01",
"5. c #520D02",
"6. c #590C06",
"7. c #5B0D05",
"8. c #54050A",
"9. c #530B0B",
"0. c #5C0D0B",
"q. c #421707",
"w. c #441303",
"e. c #4B1604",
"r. c #4C1203",
"t. c #441A05",
"y. c #4C1D03",
"u. c #411009",
"i. c #40100C",
"p. c #44120C",
"a. c #4D1409",
"s. c #4B110D",
"d. c #4C130C",
"f. c #431808",
"g. c #4A1B09",
"h. c #531304",
"j. c #5B1403",
"k. c #551901",
"l. c #5B1805",
"z. c #54140B",
"x. c #5D1308",
"c. c #5C130C",
"v. c #501B09",
"b. c #5B1909",
"n. c #450E13",
"m. c #560A14",
"M. c #441213",
"N. c #491110",
"B. c #561114",
"V. c #600700",
"C. c #630C03",
"Z. c #6C0C02",
"A. c #620D0A",
"S. c #640C0C",
"D. c #6D0F0F",
"F. c #730200",
"G. c #740C05",
"H. c #631303",
"J. c #6C1404",
"K. c #651903",
"L. c #6E1800",
"P. c #62130C",
"I. c #641309",
"U. c #6B110A",
"Y. c #6C1B0A",
"T. c #731604",
"R. c #701804",
"E. c #73130C",
"W. c #751D0B",
"Q. c #600E10",
"!. c #651F17",
"~. c #761B12",
"^. c #622300",
"/. c #6F200F",
"(. c #7A2103",
"). c #79230B",
"_. c #2F4337",
"`. c #373A4D",
"'. c #476065",
"]. c #496A63",
"[. c #810704",
"{. c #871500",
"}. c #8F1402",
"|. c #831B04",
" X c #82170F",
".X c #8F150A",
"XX c #821E0E",
"oX c #901702",
"OX c #961907",
"+X c #921809",
"@X c #851313",
"#X c #A41C0E",
"$X c #8F270A",
"%X c #932600",
"&X c #982604",
/* pixels */
"X                   X                     X X X                                                   X ",
"                                    .                                                               ",
"                                    . .         o                                                   ",
"                                    . .     . . . . .   .                                           ",
"                                            . . . . . . . . . .                                     ",
"                            . . o . . .   . . . @ $ @ . . @ . . o o                                 ",
"                            . . @ @ . . . . @ @ @ @ . @ @ . . @ . .                                 ",
"                            . . @ @ @ $ @ . $ # - @ @ $ # @ @ # @ . o                               ",
"                  X . @ . @ # # X . # 6 6 7 t d ; u 5 q 7 R # $ . . @ . o .   .                     ",
"                  o X X @ . . $ # @ $ p w 6 8 j Z P 6 7 6 5 5 y # 9 - .   o . .                     ",
"                  .     .   o $ $ # 5 - % N 4.j.A.$.:.T O.%.P.B K 6 f G # o @ X                     ",
"              . . o . @ . @ 5 % # 5 ` / B +.@.:.6 s s : q.e.x.^ ] j 6 s r . . .                     ",
"              . . o @ # - 5 6 7 $ ..A.*.m z k 5 5 @ q u v # l f 8 s.D 7 p % X #                     ",
"    .       . @   .   . # 5 7 6 c n ] g 6 D &.6.Z a.1.u.i.7 # % % U ;.F 7 w r # . .                 ",
"    .       . @ o . . . # 5 Q / J 6 L M Z l.J.T.h.C.C.v.q.e.<.c b # 8 P 7 8 l @ @ @ .               ",
"    . .     . @ . . @ 0 # 7 ] ~ @.M t.I.E.E.r.^ L 6 7 E 7 m z.C.{ I @ 5 <.:.8 U # @ .               ",
"    . . . .       . # # b B.6 j % ^ W.T.I.F 6 j 5 6 # & 5 6 F 6 a.*.m 6 5 Q 8 % 6 @   = .           ",
"X   @ .       . . d k % 5 n 8 N X. XR.b.< # g @ O & o + & o 7 v n :.C.n o p ~ 6 @ @ @ @ .           ",
"X   . .     . @   $ % < p A M B .XW.%.+.# 0 @ . l g.) 8 f $ @ 5 % n U.9.$ % { 8 I @     o     O     ",
".       . . @ . @ @ ,.<.=.M 8 A.}.6.X.% o 0 L 9.C.|.L.j.) 1 @ # = # w.9.k @ 6 6 7 # @ @ . o         ",
".       . @ @ . $ @ A :.F 8 ~ ~.F.d.7 o $ c D.1.w X.B s.p.t.N $ * . 7 ~ m 7 @ X.Q f 5 # @ . .       ",
"      . o o @ @ @ 7 6 T M X.z.G.0.E # 0 L [.V.o O + X = v U.I., o % % E ( R $ <.{ 5 @ . $ # @ .     ",
"      . . . . . # i.O.E % 6 Z H.8.  5 v s.I.% 0 . @ X   X ( E.5.o # # b %.U . f @ # 6 # @ @ .       ",
"      . @ @ o   e D B m v -...Y.h.# 0 8 I.m o 5 o @ @ o X @ 7./.6 o * X.k.T   # ` 7 # o . @ @       ",
"X   . @ # # . . 0 5 8 J q N I.h.n @ 3 .._ # @ o O ]._.  @ & m. .r . * L , L + 8 j # @ $ . . .       ",
"X   . @ @ $ . . . X.M f o # S.Z > # 5 x !.9 @ o o '.`.. # X r.^.s # @ $ x.6 @ ~ X.6 % $ . . . o     ",
"X     . . . . . 6 8 , L 6 $ :.B o - 7 6 c.g # + 2 @ % 4 & # E.T.# 7 o n U.! @ ( m.b # o . . @ @     ",
"        . . . $ # $ n N.X.7 N j.% 0 @ X M Z.p     o $ $ - Q o.5   5 Y 7.w.m 6 8 <.v # . . @ . @     ",
"      . o . . $ @ 5 F :.B N N h.F . # * 7 E.0.N @ @ 8 M $ T 9.Q t @ #.7.a.6 b 8 8 6 - @ @ .   .     ",
"    o . . . . @ 7 6 o X.A 7 r :.v # T 5 5 - 9.OX#XK.a H 5.(.J.} 5 < *.7.<.% 8 v , 7 # @ # .   . . . ",
"    . . . @ . @ . q 7 O./ @ % s.f.~ %   ; X b l.{.U.:.6.P.L @ %   ] 4.a.7 r 7 l $ 5 @ . # .     . . ",
"    . . @ @ @ @   + J 6 2.| 8 B j.9.* % 7 * $ .   z E E 6 * @ 5 ` ;.%.w.p g Z R # e # . # .   . . . ",
".         o . .   q % # 6 p.! 6 M 9.<...b #   @ . 0 5 # f # % ~ w.6.5.7 @ I n.6 # @ . . . .         ",
"          . @ @ o 5 - % j =.M 6 6 h.w.7 - # # w # # # $ W 6 F [ G.a.w $ < a 7 j r @ o   . o . .     ",
"        . . @ @ .     o 6 X.9.d.6 f 9 ~ y.e.N | M A >.N 7 :.S.7.w.R % w ;.n % % - . o   o .         ",
"          . @ @     5 @ % R <.a.*.w 7 N r.9.X.O.r.7.6.O.m 0.0.F % 6 ) q.B l J @ . . o o o .         ",
"            . . . o 5 @ % 7 M $ ).K.k.a # L A 6 5.5.w.w./ M % p =.3.t.~ 7 7 k . . . . .   . . o     ",
".           . . .   .   o $ j 8 ~ 7.|.J.c 7 8 b g v 7 x 6 6 7 2.H.x.=.5 # 5 @ o $ . o   . .         ",
"            . . @ o   X X # 6 K M w M.J.oXXXz.w.z.S.&.+.w.@X~.j.r.( e @ . @ . # @ . . . . .         ",
"            . .   @ # 5   @ @ % 8 N T 7 2.Z.K.).%X&X$X+Xj.E.c.B - 5 6 #     . @ . . @ . . .   X     ",
"                . . @ $ @ @ . . - # x @.8 8 #.r.w.h.w.+.9.m % $ 7 5 # @ @ @ . . @ @ . o             ",
"                  . . . . . . . # @ # 7 6 j A [ T u.8.n 7 # # 5 # @ @ . . @ o . . . .               ",
"                      . o . . . @ .   o @ 5 # % 5 7 5 # @ . # # @ . . . . . . o . .                 ",
"                        . o . .   @ . X o . o # 5 o X @ @ $ 5   @ . . . . . .                       ",
"                          . . .   . . o o X   # .   @ $ X @ @   . .   . . . . .                     ",
"                          . . .     . . o     @ o o @ @ o   o   . .   . . . .                       ",
"                                .   . . . . @ . . . X . @   o   .       . .                         ",
"                                .   . @   o $     .   X . @   .                                     ",
"                                  o                 .                                               ",
"                                  o .               . .   X   . o                                   "
};
