/* XPM */
static char *out[] = {
/* columns rows colors chars-per-pixel */
"64 64 218 2 ",
"   c #391726",
".  c #381826",
"X  c #3C1D2B",
"o  c #3E212F",
"O  c #3E2330",
"+  c #491B28",
"@  c #571C26",
"#  c #671F28",
"$  c #701F27",
"%  c #44222E",
"&  c #4C222E",
"*  c #53212C",
"=  c #5B252B",
"-  c #422433",
";  c #492635",
":  c #452936",
">  c #4B2B35",
",  c #462C39",
"<  c #4A2E3B",
"1  c #532833",
"2  c #532E3A",
"3  c #47313B",
"4  c #4C313E",
"5  c #53333C",
"6  c #593338",
"7  c #652329",
"8  c #6B232A",
"9  c #6B2A2A",
"0  c #732429",
"q  c #7D242A",
"w  c #792A2C",
"e  c #71352E",
"r  c #642B32",
"t  c #7B2C32",
"y  c #693835",
"u  c #633B3C",
"i  c #783A35",
"p  c #6D423B",
"a  c #77453C",
"s  c #4D3441",
"d  c #4E3844",
"f  c #523543",
"g  c #533946",
"h  c #5C3B41",
"j  c #553C4A",
"k  c #593E4C",
"l  c #683A44",
"z  c #773B44",
"x  c #5A424D",
"c  c #58454D",
"v  c #5C4452",
"b  c #5E4855",
"n  c #5E555B",
"m  c #774746",
"M  c #624655",
"N  c #624A56",
"B  c #644E5B",
"V  c #734D51",
"C  c #66515D",
"Z  c #68525E",
"A  c #6B585A",
"S  c #6C5462",
"D  c #685A63",
"F  c #705962",
"G  c #745C6C",
"H  c #666A6B",
"J  c #78666A",
"K  c #7C6575",
"L  c #7B6973",
"P  c #757270",
"I  c #7B7A78",
"U  c #84252B",
"Y  c #87272D",
"T  c #8C2A2E",
"R  c #952B2E",
"E  c #992C2E",
"W  c #82302D",
"Q  c #842C31",
"!  c #8C2D32",
"~  c #922D31",
"^  c #9C2E32",
"/  c #8B3539",
"(  c #9D3234",
")  c #9F3A37",
"_  c #A22D2F",
"`  c #A42E31",
"'  c #A82F31",
"]  c #A43234",
"[  c #AB3233",
"{  c #A63939",
"}  c #B53334",
"|  c #B5393A",
" . c #844539",
".. c #A3433D",
"X. c #8E3D42",
"o. c #AF3F42",
"O. c #884549",
"+. c #95444B",
"@. c #885949",
"#. c #975746",
"$. c #924D54",
"%. c #A74548",
"&. c #B84142",
"*. c #A45A48",
"=. c #A54D53",
"-. c #A45057",
";. c #986450",
":. c #AE6A52",
">. c #A96C54",
",. c #B86E53",
"<. c #81726D",
"1. c #826D79",
"2. c #857777",
"3. c #A36369",
"4. c #C07859",
"5. c #95AD0A",
"6. c #97B00B",
"7. c #99B50C",
"8. c #9DBC0E",
"9. c #9CB617",
"0. c #9EBE12",
"q. c #A1BE0E",
"w. c #A2BF18",
"e. c #9EB624",
"r. c #A1BC23",
"t. c #A3BD29",
"y. c #A5BA39",
"u. c #9EC10F",
"i. c #9FC210",
"p. c #A3C20F",
"a. c #A8C60E",
"s. c #A7C80F",
"d. c #A9C90F",
"f. c #A3C510",
"g. c #A8C710",
"h. c #A6C811",
"j. c #ABCA11",
"k. c #A4C31B",
"l. c #A9C81F",
"z. c #B1CE12",
"x. c #B5CF1D",
"c. c #B4D012",
"v. c #A5C323",
"b. c #AAC624",
"n. c #ADC924",
"m. c #A5C22A",
"M. c #A9C52A",
"N. c #B1CB27",
"B. c #AAC434",
"V. c #A8C238",
"C. c #BC805D",
"Z. c #A8BD47",
"A. c #ACBE58",
"S. c #91897E",
"D. c #B98263",
"F. c #ADBB68",
"G. c #B0BF6A",
"H. c #AEB973",
"J. c #B1BE73",
"K. c #B3BD7C",
"L. c #C58662",
"P. c #D79268",
"I. c #D8966D",
"U. c #E49C6E",
"Y. c #E69F71",
"T. c #DEA070",
"R. c #EAA675",
"E. c #F2AD7A",
"W. c #F5B27C",
"Q. c #FBB67E",
"!. c #FDB87F",
"~. c #ABC341",
"^. c #ACC24B",
"/. c #B2C94A",
"(. c #AEC256",
"). c #B2C45A",
"_. c #B5C565",
"`. c #B5C273",
"'. c #8C7285",
"]. c #8C7385",
"[. c #8B7C82",
"{. c #868784",
"}. c #918483",
"|. c #968C87",
" X c #9B9588",
".X c #9B8E93",
"XX c #9A9493",
"oX c #A2998C",
"OX c #A59C9B",
"+X c #AAA68D",
"@X c #ADAD8C",
"#X c #AFB28C",
"$X c #B2B983",
"%X c #B4BA8B",
"&X c #AAA797",
"*X c #B0AF90",
"=X c #B3AC9B",
"-X c #B5B896",
";X c #B3B49B",
":X c #A99EA2",
">X c #ADA5A7",
",X c #B1ACA5",
"<X c #B3ACAC",
"1X c #B4B3A5",
"2X c #BCBAA6",
"3X c #B5B2AB",
"4X c #B9B6AD",
"5X c #BAB5B3",
"6X c #BDB9B6",
"7X c #FDB880",
"8X c #C1BCA9",
"9X c #C2BBBD",
"0X c #BAC183",
"qX c #B9C095",
"wX c #CAC9A7",
"eX c #C9C3C5",
"rX c #E7E6C7",
"tX c #F4F3D2",
/* pixels */
"8.i.f.j.q.8.f.f.f.f.h.f.j.h.h.f.h.s.h.h.u.i.i.i.i.i.i.i.i.f.f.f.f.g.0.u.i.i.i.i.i.i.f.h.i.h.h.h.8.f.h.h.q.p.u.p.f.i.i.i.i.h.h.u.",
"i.i.f.f.8.p.i.i.i.f.f.f.f.h.h.i.h.h.i.u.i.i.i.i.i.i.i.i.f.f.f.f.g.q.8.f.i.i.i.i.i.i.f.h.f.i.h.h.s.f.f.j.h.j.c.q.u.i.i.i.i.u.u.u.",
"i.i.h.f.f.f.p.u.i.i.f.i.h.h.f.i.f.i.i.i.i.u.h.u.i.i.i.i.f.f.f.f.g.f.q.f.f.p.i.i.i.i.i.i.i.i.i.i.f.f.h.f.h.f.h.j.8.i.i.i.i.i.i.i.",
"i.i.s.f.f.8.8.8.i.i.u.i.u.f.i.i.i.i.i.i.i.f.h.u.h.i.i.i.i.v.v.B.M.v.b.z.u.f.p.u.i.i.i.i.i.i.i.i.i.f.f.f.h.f.h.h.8.i.i.i.i.i.i.i.",
"i.i.f.f.h.h.f.u.i.i.i.i.u.i.i.i.i.i.i.u.8.f.p.g.l.b.Z._.%X2X&XOXoXOX*X`./.b.9.p.0.i.i.i.u.u.f.i.i.i.i.h.h.f.f.8.u.i.i.i.i.i.u.i.",
"8.i.u.f.f.p.a.8.i.i.i.u.8.8.8.8.i.i.f.p.8.f.l.~.K.;XOX[.A , s j k g < g 2.@X).N.g.f.i.i.i.s.f.i.i.i.i.f.f.f.u.u.i.i.i.p.i.i.u.f.",
"u.u.8.u.i.f.p.8.i.i.i.u.7.7.7.7.i.f.s.f.l.~.%X>XI < j M S L K G G J 1.G f - J %X~.k.i.f.i.u.f.i.i.i.i.i.i.i.i.i.i.i.i.f.8.q.u.j.",
"s.j.8.8.8.u.8.8.i.i.i.i.i.i.i.8.8.f.i.m.H.<X1.s M 1.G Z C C C B B B C C B b , -  XA.b.j.j.f.f.i.i.u.8.8.8.8.8.8.u.i.f.p.j.8.s.s.",
"f.p.8.u.8.u.u.8.u.8.u.i.i.i.i.u.f.f.y.*XOXg v '.D S C S B C C B B C B B B B S k - 1.J.N.f.f.i.i.u.7.7.7.7.7.7.7.u.i.f.f.i.f.h.h.",
"u.u.8.7.7.7.7.7.7.7.u.i.h.h.h.i.k.t.*X.Xs 1.K S B B S B C B B B C B B C B C B B b , L F.l.k.f.f.i.8.7.7.7.7.7.8.i.i.f.u.i.f.i.u.",
"f.s.u.8.7.7.7.8.7.u.i.i.h.h.h.h.t.*X.Xs '.G B B C S B C B B B C C B C B C B C B B b , S.~.i.i.i.i.i.u.i.u.u.p.p.i.s.h.u.j.u.i.i.",
"f.p.u.i.i.i.u.u.i.i.i.h.s.s.h.l.K.>Xs '.G B B C B B B C B B C B B C B C B C B B x x g - @Xr.i.i.i.i.i.p.i.i.f.8.u.h.f.f.f.u.u.f.",
"p.8.f.f.i.i.f.h.f.s.f.f.h.h.i.~.<XS G K B B B B B B B C B B B B C B B B B B B C B s s O C F.x.h.i.i.i.h.p.p.h.p.s.f.f.j.q.p.f.u.",
"p.f.f.h.f.u.f.h.f.8.h.j.u.h.v.#X.Xg '.S C G C B B C C B B B B B b B B B B B B C B x < s : S.n.h.i.i.i.i.f.u.f.s.f.j.f.p.u.u.i.f.",
"i.s.h.d.h.p.f.h.s.8.q.f.f.f.V.4XM K G B C K G C B B B b b j j v k v v k g g g k b v s s 3 A (.k.i.i.i.i.s.i.f.f.i.i.f.s.8.i.i.i.",
"u.h.h.s.f.p.s.f.f.8.0.q.g.w.K.>Xs ].C B B S K D b v j b b B B B C B B C B B b b j s 3 s g 4 0Xb.i.u.u.8.u.u.8.8.8.8.u.u.u.i.i.i.",
"u.s.a.s.s.8.p.d.s.8.u.0.t.H.,X[.M G b j b B B v x N B B B N b b b b S S S S C C B N g < d 3 |.e.7.7.7.7.6.6.7.7.7.7.6.8.8.i.i.i.",
"8.p.p.s.p.8.p.d.p.u.i.k.*XXXB f G M s s k v v b B C N b g < : % o X X X - ; s j B B b j 4 5 P y.7.7.7.7.8.6.8.6.8.6.6.8.8.p.f.i.",
"i.8.8.8.8.u.u.8.8.u.i.t.;XL M m l s s < s b B b b h m 6 ; % % % O O X X X X . .   - d b g c A A.i.8.i.8.8.6.7.q.q.p.p.f.h.f.f.f.",
"f.u.u.8.i.p.p.8.8.u.0.w.-X>X6 +.X.2 < , s j v s o y a >.#.x 5 4 s s s , s < < O o . . , c 3 d $Xv.0.8.7.6.q.a.q.f.f.f.f.f.d.d.z.",
"f.f.p.f.f.f.f.p.7.7.7.7.Z.<XM $.! Q 2 < s : X . O d O o a L.>.a 2 5 s < s s 3 3 s : o . s 3 : -Xv.8.7.7.7.7.q.q.j.h.s.f.f.p.j.f.",
"s.f.f.q.s.f.a.8.7.7.6.7.e.=XL V Q T t 2 X . s D n n H n b 6 T.T.L.*.O.2 O O s d j j : X + g 3 *XM.8.6.7.7.7.6.8.f.f.8.8.f.q.q.j.",
"i.g.g.8.f.g.f.g.7.6.7.6.9.*X.Xl / U R =   : {.XX{.H H :X&XH a W.W.W.P.> c n D {.2X8XJ X . f 5 *XN.u.7.7.5.5.6.8.8.8.7.7.f.f.8.u.",
"p.f.g.6.8.g.a.a.p.7.6.6.9.$X5X2 X.U Y T & g oX2X{.H H {.rXrXc >.;.C.@.S.XXH H I rXtX=X:   6 > -XN.8.8.6.5.5.5.6.7.8.8.8.d.i.i.i.",
"f.i.u.8.6.7.8.7.7.a.8.7.0.(.5Xk $.Y U T 0 s x =X X{.{.2XtXrXF 3 V 6 3 wX XI I ;XrXrXJ <   i 5 %Xk.u.8.6.5.5.5.8.8.s.f.j.f.i.i.f.",
"f.p.u.u.8.7.8.a.d.a.s.p.i.M.;XJ m X.U U ! 1 4 f A  X=X=X|.N 6 ;.W.D.3 5 <.oX=X2X+XA g % * O.N J.k.i.8.8.u.u.u.f.s.s.f.f.s.i.p.f.",
"f.8.i.i.8.8.u.u.s.s.s.a.i.v.%X>Xs -.Y U T U u 4 d 4 f 5 4 5 @.W.Q.Q.@.p 5 d s s 5 5 l i X.z L y.i.i.i.p.p.u.i.i.8.g.s.f.8.s.p.q.",
"u.i.i.i.p.p.s.h.s.f.h.u.i.i.~.3X1.l X.U U ` #.>.a u l u a C.W.Q.P.U.P.E.>.p 6 u u @.,.) %.2 #Xv.0.8.8.p.j.j.u.i.i.u.q.f.u.u.u.8.",
"u.i.i.i.i.h.h.h.h.u.i.i.u.u.9.H.9XS l X.! ! ) P.W.R.R.E.Q.Q.Q.!.!.Q.Q.!.7XQ.R.R.R.Y.*...z J A.f.f.z.j.q.f.h.s.i.i.i.8.8.8.p.i.i.",
"h.f.i.i.i.i.u.h.h.h.h.i.u.7.7.9.$X9XB l X.Y ^ %.R.!.!.!.Q.Q.!.!.W.R.T.Q.7X7X!.!.E.,.{ +.1 +XM.u.i.j.f.j.f.f.i.i.i.u.q.q.p.i.j.h.",
"h.h.u.u.u.i.i.i.u.u.u.u.u.u.u.i.y.4XN O.X.$.Q ] ..Y.Q.!.!.Q.I.C.D.E.W.Q.!.!.Q.R.:.] ( +.f %Xb.u.u.8.p.f.f.f.i.i.i.8.8.s.s.h.h.s.",
"i.f.h.i.i.i.i.i.u.u.u.u.i.i.u.u.t.;X<Xg : X.t ! ] ) ,.U.W.Q.Q.Q.!.!.Q.Q.W.Y.*.9 ( ] =.1 }.V.f.8.7.8.p.f.h.h.f.i.i.8.h.u.h.j.f.f.",
"u.h.i.i.8.7.8.7.7.7.8.i.i.i.8.8.f.y.1X.Xl =.U U Y ] [ w  .*.,.4.,.,.*. .9 7 7 ] | =.% 2._.k.i.i.z.h.h.p.f.f.f.f.i.u.8.i.f.f.h.f.",
"f.i.i.i.8.7.7.7.7.8.u.i.i.u.u.s.s.b.;X[.s 3.=./ Y U ( | ] 0 = i r 7 $ 0 8 W &...z ; &XA.f.u.i.i.i.0.8.f.f.s.h.i.i.u.s.f.h.p.f.8.",
"u.i.i.i.i.i.u.i.s.i.i.i.i.i.8.8.8.k.G.5X:Xf r Q W { E U ] | &.../ w W Y &.o.o.X.% 1XV.w.i.i.i.i.u.u.j.p.p.j.f.u.i.u.i.f.f.p.f.u.",
"i.u.i.i.i.h.f.h.h.f.p.f.i.i.u.u.s.s.l.Z.<XK + + @ 7 Y ( R q ] ] ( ....&.] ~ [ %.l }.y.f.f.f.i.i.u.8.7.6.8.8.8.8.s.i.f.f.i.f.i.i.",
"i.i.h.h.f.f.f.h.s.h.f.h.h.i.i.i.9.t.b.V.3X}.: j - ; 1 # R ` U q ( | ^ U Q @ 1 ; < &XM.f.h.h.f.u.7.6.7.5.5.7.8.p.p.s.f.u.i.i.i.i.",
"i.h.j.i.s.i.f.j.j.f.f.h.j.j.j.l.H.4X&X2X:X< S k < x 4 ; @ Y ^ ^ ! q $ = 2 ; f M k `.b.f.j.h.f.u.7.6.5.6.5.8.u.f.f.f.f.f.i.i.i.i.",
"i.i.i.j.u.i.h.f.h.i.i.h.h.f.i.m.;XJ , B f M B g g B v k 7 q 0 q $ $ q @ k < v S h oXB.g.j.j.j.i.u.8.8.8.0.u.i.i.f.f.s.f.i.i.i.i.",
"u.s.s.u.u.i.f.i.i.i.i.i.i.i.i.m.,XJ x - < B g : S B M 6 [ [ _ E ~ ` [ U g < k Z G x $Xn.f.p.f.i.i.i.i.f.i.i.s.i.p.f.f.i.i.p.f.j.",
"h.p.7.p.i.i.i.i.i.i.i.i.i.i.i.F.5Xf S f : f s s C N M ! } } } } [ } } T = g x C K : A $Xw.i.i.0.u.i.p.f.f.f.f.u.f.f.i.i.i.i.f.f.",
"s.p.g.d.g.i.i.i.i.i.i.i.i.i.m.;X[.3 S M k < - j C N r R ] [ _ R ~ R ` U 7 5 s x s s g 1.Z.f.f.f.f.p.g.f.h.8.f.f.p.j.i.i.i.f.h.f.",
"f.u.8.8.8.u.i.i.i.i.i.u.u.h.V.1XZ S Z B v < - M N 2 r e i *. .i  .e i i p 6 - < k N M N $Xb.f.f.i.8.s.f.f.p.g.f.u.f.i.8.i.i.h.h.",
"f.p.u.u.8.i.i.i.i.i.j.u.i.h.r.;X.Xs g j s o s j 4 * p p i #.e y  .y y y p = % g N B Z < 2.Z.w.i.i.p.s.f.i.i.u.i.8.8.8.8.8.i.i.f.",
"f.g.j.h.i.i.i.i.i.i.f.d.u.k.k.G.<Xj B s o o s ; 7 7 9 8 8  .i i a 9 9 0 0 w & > g j < C &XV.f.f.f.f.f.f.i.i.i.i.8.7.7.7.8.i.i.h.",
"f.p.j.j.i.i.i.i.i.i.i.h.p.f.f.F.9Xf S j : - - # q U T E E ^ ^ ^ E [ [ } ' ' 9 % < v g }.Z.k.s.p.f.p.p.f.i.f.i.i.u.u.8.u.i.i.i.h.",
"j.p.8.8.u.u.u.u.u.i.i.i.s.u.k.A.<XS k j : X + q U R ' E [ } } } ' } } } } } T % < b -  Xm.i.0.d.u.p.q.i.q.8.i.8.u.s.8.0.i.i.s.h.",
"j.8.8.8.7.7.7.7.7.8.i.i.i.u.f.v.%X<XB s - .   # U _ ' ' ' [ } } _ } } } } } ^ % : N s K.b.j.f.0.f.i.i.q.f.8.s.p.p.f.s.8.i.i.i.i.",
"p.8.8.7.7.7.7.7.7.8.i.i.i.u.f.h.m.$X1X5X<XD < f @ q ^ ' [ ` E _ E ` ' ] ] [ ] @ s g 2.(.k.h.f.h.j.f.i.f.f.f.f.h.s.i.j.p.s.i.i.i.",
"f.i.i.8.7.8.7.8.8.8.8.u.u.h.h.f.f.b.V._.6XG B b s 2 * # 0 U R E T ^ ] ( ~ Y @ % j &X`.b.f.f.s.h.f.f.u.f.f.i.i.f.u.h.f.f.8.8.i.i.",
"i.i.i.i.i.u.i.7.7.7.7.7.p.f.f.j.h.f.f.(.5Xx G N g s , < X 2 6 + + * * 1 2 > % g XX^.k.f.s.f.i.f.f.i.i.i.f.i.i.i.h.8.u.i.i.i.i.i.",
"i.i.i.i.i.f.f.p.i.u.u.u.f.i.8.j.f.f.f.(.5XZ B S b M b k j {.6Xo S : f j v x 4 9X(.k.i.u.u.u.i.s.i.i.i.i.i.8.8.j.s.8.i.i.i.u.u.i.",
"u.f.h.f.f.f.f.c.8.i.i.i.i.8.f.j.f.i.e.J.5X6XB 3 g , s s : <X9Xd k b v v v Z , K.w.f.8.8.8.8.8.u.i.i.i.i.i.f.8.p.f.8.f.f.j.8.i.i.",
"u.f.h.h.h.h.s.p.u.i.8.7.7.i.i.i.i.m.;XXXj g , . d , : X 2.Z.;XeX% k - O - o x _.l.8.q.s.8.s.8.p.i.u.i.i.s.c.s.u.f.f.f.h.s.8.f.i.",
"f.h.f.h.h.h.j.c.8.7.5.6.6.8.i.i.f.F.5Xs G M : s g - , s 1.B.(.eX- k - - - Z 2XB.j.8.p.a.s.s.f.i.i.i.i.i.i.j.j.h.f.f.h.f.f.f.f.p.",
"h.h.j.f.s.j.j.q.i.8.8.8.8.8.u.8.f.F.5Xv - < < 3 s s s B c ).%X9XO j < : X ; P wXM.8.s.a.s.h.h.i.i.i.i.i.i.h.d.h.f.f.f.f.h.p.u.i.",
"g.f.f.j.g.8.u.u.i.i.i.i.u.7.8.h.a.b.-X<XS o % : : : : % c _.2XOXX f 3 s s j v j 0Xi.f.h.h.h.i.i.i.i.i.i.i.i.u.8.8.7.8.i.i.i.i.i.",
"j.f.8.i.s.8.8.8.u.0.i.i.u.7.7.7.a.k.t.J.3X>X2.g o o , H 2Xm.$X9XO . : 3 < s v f +Xv.i.h.h.h.i.i.i.i.i.i.i.i.i.8.5.6.8.i.i.i.i.i.",
"z.q.8.i.8.8.8.8.7.7.8.8.8.7.7.7.8.q.f.9.y.F.-X4X4X4X1X`.m.i.e.1X<Xb X X O - - : %Xk.i.f.f.i.i.i.i.i.i.i.i.i.u.u.8.8.u.u.u.i.i.i.",
"f.7.8.i.i.7.7.7.7.7.7.7.8.7.7.7.7.8.7.7.6.7.9.e.t.m.v.i.i.i.f.b.$X5X:XL x b L =Xy.k.i.i.i.i.i.i.i.i.8.8.7.8.8.i.f.7.6.6.8.i.i.i.",
"s.i.i.i.i.u.u.8.8.8.8.8.u.8.7.7.7.7.6.7.7.8.u.8.7.u.i.i.i.h.i.h.k.~.`.qX-XqX`.V.i.i.i.i.8.d.8.u.u.i.8.7.7.7.8.i.8.8.8.8.u.f.p.8.",
"8.i.i.i.i.i.i.i.i.i.u.7.8.u.i.i.u.8.8.u.u.i.i.i.i.i.i.i.i.h.f.i.i.h.h.l.l.i.i.i.i.i.i.f.q.j.q.p.8.i.i.u.i.8.0.u.f.8.p.j.u.j.p.p.",
"u.i.i.i.i.i.i.i.f.h.f.i.i.f.i.h.i.f.h.i.i.i.i.i.i.i.i.i.i.h.i.i.i.i.i.i.i.i.i.i.i.p.z.j.j.f.f.f.8.u.i.8.i.i.p.f.h.a.j.f.f.s.g.q.",
"j.u.i.f.f.i.f.j.j.j.j.f.f.j.j.h.f.j.h.h.i.i.i.i.i.i.i.i.f.f.f.h.h.i.i.i.i.i.i.i.i.f.j.z.j.j.f.h.8.i.j.c.a.8.f.h.f.f.p.f.f.f.g.j."
};
