/* XPM */
static char *c71f245e53d64425b7f1ffd49ef55e2a0YGIGar2yHNy8Xfp[] = {
/* columns rows colors chars-per-pixel */
"60 60 205 2 ",
"   c None",
".  c #1A1716",
"X  c #1D1B1D",
"o  c #1C181A",
"O  c #231E1D",
"+  c #36181C",
"@  c #28211D",
"#  c #1F1C21",
"$  c #211F21",
"%  c #381F25",
"&  c #252324",
"*  c #282626",
"=  c #242329",
"-  c #29252A",
";  c #2C2B2C",
":  c #322925",
">  c #34242B",
",  c #352A2B",
"<  c #3A2B26",
"1  c #2B2B34",
"2  c #362D34",
"3  c #392C34",
"4  c #34343D",
"5  c #37383F",
"6  c #5B1A1D",
"7  c #561B1E",
"8  c #651C1F",
"9  c #581E22",
"0  c #6B1F22",
"q  c #661D21",
"w  c #701F23",
"e  c #422627",
"r  c #5B2326",
"t  c #57262A",
"y  c #5B2529",
"u  c #5C292E",
"i  c #44332C",
"p  c #4A342A",
"a  c #4D382F",
"s  c #55392E",
"d  c #4C3931",
"f  c #473834",
"g  c #543C32",
"h  c #5A3D31",
"j  c #6C2124",
"k  c #65262A",
"l  c #742226",
"z  c #7A2327",
"x  c #7E2529",
"c  c #7C292D",
"v  c #7E2B30",
"b  c #5B4335",
"n  c #5C453B",
"m  c #54443B",
"M  c #634336",
"N  c #664B3C",
"B  c #6D4C3E",
"V  c #644639",
"C  c #724E3E",
"Z  c #74503F",
"A  c #373841",
"S  c #5C4B45",
"D  c #575150",
"F  c #6A4F41",
"G  c #6C5346",
"H  c #735444",
"J  c #7A5543",
"K  c #765B4C",
"L  c #745D56",
"P  c #79675C",
"I  c #715F64",
"U  c #7A6465",
"Y  c #767072",
"T  c #83262A",
"R  c #8B272B",
"E  c #84292C",
"W  c #8C292D",
"Q  c #912A2E",
"!  c #91272F",
"~  c #832C32",
"^  c #8C2D31",
"/  c #942C31",
"(  c #9A2C32",
")  c #973138",
"_  c #803133",
"`  c #A02B32",
"'  c #8A5A45",
"]  c #825C49",
"[  c #895E4B",
"{  c #835845",
"}  c #9A595C",
"|  c #88585F",
" . c #A05D4D",
".. c #8A614D",
"X. c #85624E",
"o. c #94644C",
"O. c #9B644C",
"+. c #8C6651",
"@. c #83695B",
"#. c #946B54",
"$. c #9A6B54",
"%. c #936C59",
"&. c #98725D",
"*. c #AB6A4E",
"=. c #A16D54",
"-. c #AC6D51",
";. c #A5685F",
":. c #B16F52",
">. c #AC745C",
",. c #A7745A",
"<. c #B37255",
"1. c #B3765A",
"2. c #B5795D",
"3. c #BA7A5D",
"4. c #B8775B",
"5. c #965860",
"6. c #805A60",
"7. c #866766",
"8. c #9B6168",
"9. c #9A7C6E",
"0. c #927B75",
"q. c #AC7560",
"w. c #AD7D63",
"e. c #AF7E6A",
"r. c #B37C64",
"t. c #BC7F61",
"y. c #B27E6A",
"u. c #AA8369",
"i. c #B58366",
"p. c #BD8266",
"a. c #B4846A",
"s. c #BD8A6F",
"d. c #B6866B",
"f. c #AE897A",
"g. c #B2897D",
"h. c #B58973",
"j. c #BD927A",
"k. c #C18366",
"l. c #C48A6C",
"z. c #C38669",
"x. c #C68E70",
"c. c #C98F70",
"v. c #CB9474",
"b. c #CC9779",
"n. c #CE9A7A",
"m. c #C59173",
"M. c #D09C7D",
"N. c #888385",
"B. c #968685",
"V. c #97999F",
"C. c #A68D86",
"Z. c #B28E82",
"A. c #B69285",
"S. c #B3958E",
"D. c #BC9B8E",
"F. c #B89487",
"G. c #AA9A97",
"H. c #B89C96",
"J. c #AD918A",
"K. c #A9A3A8",
"L. c #B2A9AB",
"P. c #B7A9A9",
"I. c #BBABB3",
"U. c #B6AFB7",
"Y. c #BCB1B4",
"T. c #B4B4BA",
"R. c #BDB4BA",
"E. c #B9B5BB",
"W. c #ACAEB7",
"Q. c #CF9F80",
"!. c #D3A283",
"~. c #D5A789",
"^. c #C6A79A",
"/. c #CDB0A2",
"(. c #D2B7A8",
"). c #C0B5B5",
"_. c #C1B6BA",
"`. c #C4BABB",
"'. c #B9BAC2",
"]. c #C2BDC2",
"[. c #BFC1CB",
"{. c #C6C1C6",
"}. c #CCC2C3",
"|. c #C2C5CE",
" X c #CDC9CD",
".X c #C9C5C9",
"XX c #D3CDCE",
"oX c #C3C6D0",
"OX c #C6C9D2",
"+X c #CBCDD5",
"@X c #CCCFD9",
"#X c #D4CFD1",
"$X c #CED1D9",
"%X c #D3D5DC",
"&X c #D6D8DF",
"*X c #D6D3D4",
"=X c #D7DAE1",
"-X c #DBDDE3",
";X c #DEE1E6",
":X c #DFE2E8",
">X c #E1E2E7",
",X c #E3E4EA",
"<X c #E7E8ED",
"1X c #E9E9EE",
"2X c #EDECF1",
/* pixels */
"                                                                                                                        ",
"                                                                                                                        ",
"                                                                                                                        ",
"                                                                                                                        ",
"                                                                                                                        ",
"                                            ; & & - - & X X $ & & & $ $ & ; ;                                           ",
"                                          ; ; & & - - & X . . X X X X X # & *                                           ",
"                                        ; ; & X X & & O . . . X X X X O & & &                                           ",
"                                        ; * & O @ i g h p < : : < i s g d , *                                           ",
"                                        & & : i g Z o.=.$.X.K K K +.$.o.{ V d                                           ",
"                                        * : a C ' o.=.,.w.u.d.d.a.w.>.=.O.' {                                           ",
"                                        i b C o.O.{ N n B +.a.a.&.H N N C ' O.                                          ",
"                                        F ] o.=.w.9.P m b ..i.d.o.M g G @.$.-.                                          ",
"                                        F ..$.,.d.j.h.&.o.,.s.l.,.o.+.u.h.i.1.                                          ",
"                                        H ....[ $.i.s.i.,.#.%.#.+.$.>.s.s.>.$.                                          ",
"                                        ] [ J h V [ $.#.] H H F C J ..#.$.J V                                           ",
"                                        9.%.K f f n V b g N B B M h g n F n m D                                         ",
"                          %X=X=X%X$XOXE.L.G.N.Y I S d < < g M M s p i S U Y N.V.T.OX+X$X&X=X                            ",
"                        %X=X-X:X-X&X$XOX[.'.W.W.K.B.U n i i i i d n L B.K.W.T.'.|.+X%X&X-X:X:X                          ",
"                        %X-X>X,X,X-X=X%XOX|.[.oXOX].P.C.0.7.7.7.0.C.P.{.OXOX|.|.+X&X=X-X>X,X>X                          ",
"                        +X&X-X>X:X-X&X%X+XOX+X&X=X=X*XXX}.).).`.}.#X&X-X=X%X+XOX+X%X=X:X>X>X-X                          ",
"                        |.+X&X=X=X%X+XOXoXOX%X-X,X,X<X,X,X:X:X:X,X<X,X>X>X-X$X|.[.OX$X=X-X-X=X                          ",
"                        ]..X+X#X X{.R.U.T.'.+X-X,X<X1X1X<X<X<X,X,X,X,X,X,X-XOXT.L.R.]. XXX#X#X                          ",
"                        ^./.(.(./.^.D.Z.J.P.].%X-X>X,X1X1X1X<X<X,X,X,X,X:X&X`.G.C.A.D.^./.(.(.                          ",
"                        m.b.n.n.v.l.p.2.e.S.E.oX@X=X:X,X,X<X,X>X>X>X>X-X&XOXP.g.q.2.p.l.v.n.Q.                          ",
"                        l.v.v.v.c.z.k.3.a.H.T.[.+X&X-X>X,X,X,X:X:X>X:X=X%X|.P.Z.r.t.k.l.v.b.n.                          ",
"                        l.c.v.b.v.c.z.t.h.H.T.|.+X&X-X>X,X,X>X:X:X,X,X-X&XOXY.A.i.p.l.v.b.n.n.                          ",
"                        l.c.v.v.v.l.k.4.y.S.E.oX$X=X:X>X>X>X>X>X,X<X<X:X=X+XY.A.r.3.z.x.b.n.M.                          ",
"                        l.v.b.v.l.k.3.-.q.S.R.OX&X-X,X,X,X>X,X,X1X1X<X:X=X+XY.g.>.<.3.z.v.M.!.                          ",
"                        x.b.n.b.c.k.3.*.q.S.`.%X-X<X1X1X1X,X<X<X,X,X,X:X=X$XY.g.>.<.t.l.n.!.~.                          ",
"                        x.b.M.M.v.z.3.-.r.D.}.=X>X1X2X2X1X,X,X,X,X,X,X,X-X%X_.Z.>.1.k.v.M.!.~.                          ",
"                        l.v.b.b.c.k.3.:.r.D.}.&X:X1X1X1X,X>X>X>X,X,X,X:X=X%X`.A.1.<.3.z.b.M.!.                          ",
"                        l.v.b.v.z.3.<.:.y.D.`.+X=X>X,X,X,X,X,X>X>X>X-X=X%X@X_.F.>.*.<.k.v.M.!.                          ",
"                        l.v.b.b.l.2.*.*.y.D.). X%X&X-X-X>X,X,X>X-X=X%X%X$XOX).A.>.*.1.z.b.M.M.                          ",
"                        x.v.b.b.m.t.*.*.>.g.H.I.Y._._.].].{.{.].R.R.Y.I.I.I.H.g.>.-.2.x.b.n.n.                          ",
"                            v.b.v.z.1.*. .} } 8.8.8.8.7.7.U U U 6.| 5.5.} } } ;.1.                                      ",
"                                        _ ~ ^ ) ( / ^ c k u u u k c ^ ( ( / )                                           ",
"                                        c E ! ` ` ( W T l j j j l T Q ( ( ( (                                           ",
"                                        ~ W Q ( ( ( W T z l l z T R Q / / / /                                           ",
"                                        ~ W W Q Q Q R T z z l x T W W Q R R E                                           ",
"                                        ~ E W R R R R T x l 0 z T W R R T T T                                           ",
"                                        c E E E T T W T z j 6 0 T R R R T T E                                           ",
"                                        c E E W W W E x l 8 6 8 z T R W W W ^                                           ",
"                                        c c E W Q W W T l q 6 8 z T W Q Q / ^                                           ",
"                                        v E W Q Q Q W T z w 0 0 x R Q Q Q / ^                                           ",
"                                        ~ ^ W / Q / Q W T l w l x W W W Q / /                                           ",
"                                        ~ ^ W W W W W E x l w l x T E W W W ^                                           ",
"                                        ~ E E T T x x T T x l z x x x T E E E                                           ",
"                                        c c T x z l z x T x j z T x x x T x c                                           ",
"                                        v E T T T T T T x l 0 l T R W W W E E                                           ",
"                                        ~ E E W Q Q Q R z l 0 l T Q / / Q W W                                           ",
"                                        c c T T E E T x l j 0 0 l T E E T c c                                           ",
"                                        k k k r y y y r r 9 7 7 9 t t t y r r                                           ",
"                                        e e % > , 3 3 > % + + + > 2 2 2 2 > -                                           ",
"                                          - - 1 4 A 4 1 = X X # = 1 4 5 4 1 1                                           ",
"                                              1 4 A 4 1 =                                                               ",
"                                                                                                                        ",
"                                                                                                                        ",
"                                                                                                                        ",
"                                                                                                                        "
};
